<?xml version="1.0" encoding="UTF-8"?>
<svg version="1.1" xmlns="http://www.w3.org/2000/svg" width="800" height="800">
<path d="M0 0 C264 0 528 0 800 0 C800 264 800 528 800 800 C536 800 272 800 0 800 C0 536 0 272 0 0 Z " fill="#FEFEFE" transform="translate(0,0)"/>
<path d="M0 0 C5.14769211 1.81732001 9.9319361 2.57378542 15.37695312 3.01904297 C16.03695312 0.70904297 16.69695312 -1.60095703 17.37695312 -3.98095703 C20.67695313 -3.98095703 23.97695313 -3.98095703 27.37695312 -3.98095703 C28.40581007 0.48888561 28.77739613 4.97675819 29.13085938 9.53857422 C29.19603256 10.3559758 29.26120575 11.17337738 29.32835388 12.01554871 C29.46509652 13.74096175 29.60032387 15.46649548 29.73413086 17.19213867 C29.93797628 19.81255818 30.14833913 22.43239703 30.359375 25.05224609 C30.49193088 26.73515778 30.62410466 28.41809962 30.75585938 30.10107422 C30.81834366 30.87530228 30.88082794 31.64953033 30.94520569 32.44721985 C31.31741191 37.31993252 31.43205869 42.13197614 31.37695312 47.01904297 C28.40695312 47.01904297 25.43695313 47.01904297 22.37695312 47.01904297 C22.16941406 46.19662109 21.961875 45.37419922 21.74804688 44.52685547 C18.14453123 31.46976531 11.54055428 22.02664862 0.14257812 14.55419922 C-14.16972 6.65361854 -32.1422524 4.64107875 -48.08789062 7.67919922 C-59.59626945 11.40772027 -67.09331966 19.63662962 -72.72070312 30.05029297 C-75.84139291 37.13353303 -75.65114814 44.90805535 -73.12304688 52.14404297 C-64.21457512 71.65637037 -37.90764187 82.23541325 -19.99804688 91.76904297 C1.48849206 103.23950092 21.54313088 115.32153506 39.37695312 132.01904297 C40.01246094 132.56689453 40.64796875 133.11474609 41.30273438 133.67919922 C49.30112531 140.89725933 54.75260813 151.71451224 55.56176758 162.47729492 C55.64452673 165.14033954 55.65000272 167.79239428 55.62695312 170.45654297 C55.6346875 171.34664062 55.64242187 172.23673828 55.65039062 173.15380859 C55.60825772 187.57379373 50.75445781 199.23611286 40.76757812 209.74951172 C37.19101218 213.14491174 33.38802363 216.15534724 29.37695312 219.01904297 C30.77275641 221.81064954 32.78684937 222.05460711 35.56054688 223.17529297 C37.37695312 224.01904297 37.37695312 224.01904297 39.68945312 225.89404297 C42.9238922 228.45150642 46.32752818 230.07230874 50.02539062 231.86669922 C52.57748961 233.11731251 54.97426876 234.5015581 57.37695312 236.01904297 C58.70997818 236.85286934 60.04334135 237.68615531 61.37695312 238.51904297 C62.06789063 238.95345703 62.75882813 239.38787109 63.47070312 239.83544922 C64.9225738 240.7369181 66.39543724 241.60467133 67.87695312 242.45654297 C71.52745403 244.73810604 75.15848631 247.15197204 78.37695312 250.01904297 C78.37695312 250.67904297 78.37695312 251.33904297 78.37695312 252.01904297 C79.21419922 252.13505859 79.21419922 252.13505859 80.06835938 252.25341797 C85.01477175 253.89385253 88.65497026 258.49742786 92.37695312 262.01904297 C93.28445313 262.84404297 94.19195312 263.66904297 95.12695312 264.51904297 C107.30050537 278.04521213 109.30119696 292.73041299 108.59472656 310.27832031 C107.54649346 323.47054549 100.61713568 334.28051692 91.18945312 343.20654297 C68.65006634 361.98936529 41.02467873 367.03742709 12.37695312 365.01904297 C-0.32198153 363.6550328 -12.55879321 360.08911242 -24.71875 356.3059082 C-25.67716797 356.01014893 -26.63558594 355.71438965 -27.62304688 355.40966797 C-28.46867187 355.14186523 -29.31429687 354.8740625 -30.18554688 354.59814453 C-32.81001446 353.97462319 -34.93700883 353.75110623 -37.62304688 354.01904297 C-40.14200755 356.19450901 -42.12814538 358.02923997 -43.62304688 361.01904297 C-46.59304688 361.01904297 -49.56304687 361.01904297 -52.62304688 361.01904297 C-52.62304688 342.53904297 -52.62304688 324.05904297 -52.62304688 305.01904297 C-49.65304687 305.01904297 -46.68304688 305.01904297 -43.62304688 305.01904297 C-43.34332031 305.97423828 -43.06359375 306.92943359 -42.77539062 307.91357422 C-38.59601664 321.63053963 -32.91469545 332.77908684 -19.86914062 339.98828125 C-6.08388272 347.15071562 6.67193317 350.1969346 22.18945312 350.20654297 C23.21876953 350.21878906 24.24808594 350.23103516 25.30859375 350.24365234 C38.29613585 350.26829664 52.25901275 347.56272525 62.55273438 339.03857422 C69.91349624 330.88972222 72.2797798 322.15711558 72.00463867 311.43896484 C71.4518336 302.20363391 68.51459347 295.83864335 62.37695312 289.01904297 C62.37695312 288.35904297 62.37695312 287.69904297 62.37695312 287.01904297 C61.81363281 286.76638672 61.2503125 286.51373047 60.66992188 286.25341797 C58.05731447 284.84697174 55.99131984 283.14437695 53.68945312 281.26904297 C44.69699177 274.26303287 34.40485479 269.17665013 24.44482422 263.70751953 C-11.98410882 243.65798102 -11.98410882 243.65798102 -19.62304688 236.01904297 C-22.25070989 235.85443299 -24.86773811 235.73971534 -27.49804688 235.64404297 C-44.07657948 234.81692515 -59.21411334 231.55977136 -75.10498047 226.7121582 C-76.2517627 226.36612549 -77.39854492 226.02009277 -78.58007812 225.66357422 C-79.60077393 225.34751221 -80.62146973 225.0314502 -81.6730957 224.70581055 C-84.80052415 223.97772512 -87.42361445 223.77198794 -90.62304688 224.01904297 C-93.96065733 226.16994748 -95.35775621 227.22317096 -96.62304688 231.01904297 C-99.59304688 231.01904297 -102.56304687 231.01904297 -105.62304688 231.01904297 C-105.62304688 212.53904297 -105.62304688 194.05904297 -105.62304688 175.01904297 C-102.65304687 175.01904297 -99.68304688 175.01904297 -96.62304688 175.01904297 C-96.29433594 176.25267578 -96.29433594 176.25267578 -95.95898438 177.51123047 C-93.791743 185.14062492 -91.10581951 191.47961367 -86.62304688 198.01904297 C-85.75679688 199.34935547 -85.75679688 199.34935547 -84.87304688 200.70654297 C-75.10327504 210.74769736 -59.19766343 218.19097024 -45.16601562 219.19482422 C-43.31745605 219.20453644 -41.46867764 219.12351263 -39.62304688 219.01904297 C-40.07035156 218.44798828 -40.51765625 217.87693359 -40.97851562 217.28857422 C-50.05274447 205.11865962 -53.94133088 192.12627463 -52.62304688 177.01904297 C-49.36227521 162.55759375 -42.10245299 150.52903011 -30.62304688 141.01904297 C-25.26120477 138.01904297 -25.26120477 138.01904297 -22.62304688 138.01904297 C-22.29304688 137.35904297 -21.96304688 136.69904297 -21.62304688 136.01904297 C-22.44546875 135.77798828 -23.26789063 135.53693359 -24.11523438 135.28857422 C-28.24877177 133.79258351 -31.92181832 131.85346826 -35.74804688 129.70654297 C-36.91134521 129.05600952 -36.91134521 129.05600952 -38.09814453 128.39233398 C-51.85177113 120.58507179 -65.28075031 111.92314743 -77.62304688 102.01904297 C-78.19249023 101.56706543 -78.76193359 101.11508789 -79.34863281 100.64941406 C-92.36741863 90.2406411 -103.46303884 78.3209255 -105.62304688 61.01904297 C-106.61701398 43.81576622 -102.05603274 30.82958325 -90.95117188 17.49951172 C-64.80891426 -10.35339698 -33.92563879 -12.31661373 0 0 Z " fill="#6A6B6D" transform="translate(407.623046875,224.98095703125)"/>
<path d="M0 0 C5.14769211 1.81732001 9.9319361 2.57378542 15.37695312 3.01904297 C16.03695312 0.70904297 16.69695312 -1.60095703 17.37695312 -3.98095703 C20.67695313 -3.98095703 23.97695313 -3.98095703 27.37695312 -3.98095703 C28.40581007 0.48888561 28.77739613 4.97675819 29.13085938 9.53857422 C29.19603256 10.3559758 29.26120575 11.17337738 29.32835388 12.01554871 C29.46509652 13.74096175 29.60032387 15.46649548 29.73413086 17.19213867 C29.93797628 19.81255818 30.14833913 22.43239703 30.359375 25.05224609 C30.49193088 26.73515778 30.62410466 28.41809962 30.75585938 30.10107422 C30.81834366 30.87530228 30.88082794 31.64953033 30.94520569 32.44721985 C31.31741191 37.31993252 31.43205869 42.13197614 31.37695312 47.01904297 C28.40695312 47.01904297 25.43695313 47.01904297 22.37695312 47.01904297 C22.16941406 46.19662109 21.961875 45.37419922 21.74804688 44.52685547 C18.14453123 31.46976531 11.54055428 22.02664862 0.14257812 14.55419922 C-14.16972 6.65361854 -32.1422524 4.64107875 -48.08789062 7.67919922 C-59.59626945 11.40772027 -67.09331966 19.63662962 -72.72070312 30.05029297 C-75.84139291 37.13353303 -75.65114814 44.90805535 -73.12304688 52.14404297 C-64.21457512 71.65637037 -37.90764187 82.23541325 -19.99804688 91.76904297 C1.48849206 103.23950092 21.54313088 115.32153506 39.37695312 132.01904297 C40.01246094 132.56689453 40.64796875 133.11474609 41.30273438 133.67919922 C49.30112531 140.89725933 54.75260813 151.71451224 55.56176758 162.47729492 C55.64452673 165.14033954 55.65000272 167.79239428 55.62695312 170.45654297 C55.6346875 171.34664062 55.64242187 172.23673828 55.65039062 173.15380859 C55.60834239 187.54481766 50.78473367 199.2993319 40.74414062 209.74560547 C32.82275808 217.35326989 32.82275808 217.35326989 29.37695312 219.01904297 C24.145364 218.88807134 20.35724681 216.58881337 16.00195312 213.95654297 C15.36128906 213.57949219 14.720625 213.20244141 14.06054688 212.81396484 C12.49441247 211.8906468 10.93497278 210.95598904 9.37695312 210.01904297 C10.55148592 207.57601475 11.74220327 205.50062341 13.31445312 203.26904297 C17.43637901 196.77388703 18.96243992 190.85058178 18.93945312 183.26904297 C18.93848633 182.48698486 18.93751953 181.70492676 18.93652344 180.89916992 C18.65122979 171.38970739 14.54310166 164.10618272 8.37695312 157.01904297 C-2.75559133 147.08955887 -15.95665005 140.11733439 -29.02929688 133.11279297 C-46.03770711 123.99474256 -62.54137218 114.12136775 -77.62304688 102.01904297 C-78.19249023 101.56706543 -78.76193359 101.11508789 -79.34863281 100.64941406 C-92.36741863 90.2406411 -103.46303884 78.3209255 -105.62304688 61.01904297 C-106.61701398 43.81576622 -102.05603274 30.82958325 -90.95117188 17.49951172 C-64.80891426 -10.35339698 -33.92563879 -12.31661373 0 0 Z " fill="#030303" transform="translate(407.623046875,224.98095703125)"/>
<path d="M0 0 C1.98608699 1.71525694 2.95689457 2.88299954 3.875 5.375 C5.52915541 9.23469595 8.22741632 12.11370816 12 14 C12 14.66 12 15.32 12 16 C13.11375 16.0928125 13.11375 16.0928125 14.25 16.1875 C17.83127761 17.24560475 18.84857871 19.03252236 21 22 C21.66 22.33 22.32 22.66 23 23 C23.103125 23.969375 23.20625 24.93875 23.3125 25.9375 C23.539375 26.948125 23.76625 27.95875 24 29 C26.46255685 30.45291273 26.46255685 30.45291273 29 31 C29.33 30.34 29.66 29.68 30 29 C30.33 29.66 30.66 30.32 31 31 C31.99 31.309375 32.98 31.61875 34 31.9375 C34.99 32.288125 35.98 32.63875 37 33 C37.33 33.99 37.66 34.98 38 36 C38.99 36.33 39.98 36.66 41 37 C41 36.01 41 35.02 41 34 C41.66 34 42.32 34 43 34 C41.83131169 41.36273636 39.54670503 46.1280222 35 52 C34.16855469 53.11375 34.16855469 53.11375 33.3203125 54.25 C25.57912055 63.81851194 14.13715217 70.10474847 3 75 C2.21109375 75.35707031 1.4221875 75.71414063 0.609375 76.08203125 C-27.85765543 87.73954218 -59.81958896 82.08412631 -88.09570312 73.28686523 C-89.53333008 72.84322632 -89.53333008 72.84322632 -91 72.390625 C-91.845625 72.12282227 -92.69125 71.85501953 -93.5625 71.57910156 C-96.18696758 70.95558022 -98.31396195 70.73206326 -101 71 C-103.51896068 73.17546604 -105.5050985 75.010197 -107 78 C-109.97 78 -112.94 78 -116 78 C-116 59.52 -116 41.04 -116 22 C-113.03 22 -110.06 22 -107 22 C-106.72027344 22.95519531 -106.44054687 23.91039062 -106.15234375 24.89453125 C-101.97296976 38.61149666 -96.29164857 49.76004387 -83.24609375 56.96923828 C-69.46083585 64.13167265 -56.70501996 67.17789163 -41.1875 67.1875 C-40.15818359 67.19974609 -39.12886719 67.21199219 -38.06835938 67.22460938 C-25.08081728 67.24925367 -11.11794038 64.54368228 -0.82421875 56.01953125 C6.53467008 47.87275282 8.91018487 39.13312089 8.62548828 28.41552734 C8.02514931 18.49604755 4.32222702 11.54452425 -2 4 C-1.34 2.68 -0.68 1.36 0 0 Z " fill="#040404" transform="translate(471,508)"/>
<path d="M0 0 C2.97 0 5.94 0 9 0 C9.32871094 1.23363281 9.32871094 1.23363281 9.6640625 2.4921875 C11.83130388 10.12158195 14.51722737 16.4605707 19 23 C19.5775 23.886875 20.155 24.77375 20.75 25.6875 C30.51977184 35.72865439 46.42538345 43.17192727 60.45703125 44.17578125 C62.30559083 44.18549347 64.15436923 44.10446967 66 44 C65.31164062 43.09121094 65.31164062 43.09121094 64.609375 42.1640625 C60.48236349 36.52843754 56.71167946 30.85930372 55 24 C55.495 22.515 55.495 22.515 56 21 C56 21.66 56 22.32 56 23 C56.99 23 57.98 23 59 23 C59.495 25.475 59.495 25.475 60 28 C60.94875 27.979375 61.8975 27.95875 62.875 27.9375 C66 28 66 28 68 29 C68 29.99 68 30.98 68 32 C68.57492187 32.10957031 69.14984375 32.21914063 69.7421875 32.33203125 C72.29075493 33.08601919 73.97582599 34.1307789 76.125 35.6875 C76.80820312 36.16574219 77.49140625 36.64398438 78.1953125 37.13671875 C80 39 80 39 80.921875 41.95703125 C82.26923354 45.75990192 83.80492897 46.78045391 87.125 49 C88.10339844 49.67546875 89.08179688 50.3509375 90.08984375 51.046875 C91.05019531 51.69140625 92.01054687 52.3359375 93 53 C94.57211495 54.06933248 96.13603096 55.15092712 97.6875 56.25 C98.33074219 56.68828125 98.97398437 57.1265625 99.63671875 57.578125 C101 59 101 59 101 63 C102.299375 63.144375 103.59875 63.28875 104.9375 63.4375 C108.875 63.875 108.875 63.875 110 65 C110.0825 66.11375 110.165 67.2275 110.25 68.375 C110.61710067 72.08451299 110.61710067 72.08451299 113.25 73.8125 C115.92742698 75.0193783 115.92742698 75.0193783 118.5 75.8125 C121.34841983 77.16549942 122.51687363 78.87169579 124.3984375 81.3359375 C127.63950336 84.70348398 131.93143527 86.77216456 136 89 C136.33 88.34 136.66 87.68 137 87 C137 88.32 137 89.64 137 91 C132.85157111 90.27349849 129.30482657 88.26281237 125.625 86.3125 C124.89547119 85.92602295 124.16594238 85.5395459 123.41430664 85.14135742 C116.9221093 81.62805251 110.6653977 77.77222569 104.4375 73.8125 C103.52242676 73.23089111 102.60735352 72.64928223 101.66455078 72.05004883 C97.55275087 69.40277197 93.64006005 66.7300958 89.8671875 63.6171875 C85.83091976 60.54360596 82.65486086 60.21840854 77.6875 60.3125 C76.0844486 60.27560831 74.4815576 60.23110176 72.87890625 60.1796875 C72.06566895 60.15616211 71.25243164 60.13263672 70.41455078 60.10839844 C56.6810996 59.49185119 43.59424597 55.68208951 30.51806641 51.69311523 C28.79789307 51.17406616 28.79789307 51.17406616 27.04296875 50.64453125 C26.02227295 50.32846924 25.00157715 50.01240723 23.94995117 49.68676758 C20.82252272 48.95868215 18.19943242 48.75294497 15 49 C11.66238955 51.15090451 10.26529067 52.20412799 9 56 C6.03 56 3.06 56 0 56 C0 37.52 0 19.04 0 0 Z " fill="#060606" transform="translate(302,400)"/>
<path d="M0 0 C3.96870385 1.3748724 6.77279987 3.20247489 10 5.875 C11.2375 6.89207031 11.2375 6.89207031 12.5 7.9296875 C13.7375 8.95449219 13.7375 8.95449219 15 10 C15.86367188 10.65613281 16.72734375 11.31226563 17.6171875 11.98828125 C19.95664927 13.96340062 21.46388019 15.75728018 23.125 18.3125 C23.84042969 19.38951172 23.84042969 19.38951172 24.5703125 20.48828125 C28.12851317 26.73943707 29.53213516 31.72462663 29.4375 38.8125 C29.42992676 39.60567627 29.42235352 40.39885254 29.41455078 41.21606445 C29.13252169 51.27338659 25.90994966 57.77596172 19 65 C7.73581777 61.1531755 -4.45323402 51.31862552 -9.875 40.75 C-13.2525695 33.54750079 -14.26281214 27.25115887 -11.75 19.5625 C-11.17806617 18.03734312 -10.59403506 16.51668525 -10 15 C-9.68675781 14.1028125 -9.37351562 13.205625 -9.05078125 12.28125 C-8.72464844 11.3840625 -8.39851563 10.486875 -8.0625 9.5625 C-7.61583984 8.32693359 -7.61583984 8.32693359 -7.16015625 7.06640625 C-5.75458151 4.56287413 -4.5639658 4.15905303 -2 3 C-1.34 2.01 -0.68 1.02 0 0 Z " fill="#FBFCFC" transform="translate(398,369)"/>
<path d="M0 0 C2.36146791 1.29119763 4.67945124 2.63497132 7 4 C5.75023244 7.65316671 5.32901247 8.78065836 2 11 C-3.15559096 19.23058735 -6.1014206 28.24684081 -5 38 C-4.17719721 41.40060114 -3.15762019 44.69940434 -2 48 C-3.32 47.34 -4.64 46.68 -6 46 C-6.66 49.3 -7.32 52.6 -8 56 C-8.33 56 -8.66 56 -9 56 C-9 50.72 -9 45.44 -9 40 C-12.45686069 39.42385655 -15.7324426 38.90041979 -19.1875 38.5625 C-23 38 -23 38 -26 36 C-25.67 36.99 -25.34 37.98 -25 39 C-26.00177699 40.36909522 -27.00383702 41.7379849 -28.0078125 43.10546875 C-29.92441215 46.76511769 -29.83939568 50.9367107 -30 55 C-31.98 55.495 -31.98 55.495 -34 56 C-37.90422954 49.55566932 -36.71751948 41.17117983 -35.125 34.1328125 C-31.22541455 20.81516818 -23.371634 7.16084976 -10.87890625 0.28125 C-6.17164196 -1.81370615 -4.64599465 -2.21740654 0 0 Z " fill="#A3A4A6" transform="translate(391,364)"/>
<path d="M0 0 C3.3 0 6.6 0 10 0 C11.24074844 3.72224531 11.45446862 7.36929711 11.75390625 11.25390625 C11.85166603 12.47713844 11.85166603 12.47713844 11.95140076 13.7250824 C12.08853104 15.45402537 12.22373993 17.18312164 12.35717773 18.91235352 C12.55987709 21.52864539 12.77069545 24.1441907 12.98242188 26.75976562 C13.62452679 34.85714758 14.19296866 42.87014653 14 51 C11.36 51 8.72 51 6 51 C5.608125 49.88625 5.21625 48.7725 4.8125 47.625 C0.64799326 36.72435563 -4.85774824 28.99138944 -13.2265625 20.828125 C-15.22729149 18.76569952 -15.74949779 17.83902509 -16 15 C-15.61062073 11.82006927 -15.01358339 9.04075016 -14 6 C-10.04 6.33 -6.08 6.66 -2 7 C-1.34 4.69 -0.68 2.38 0 0 Z " fill="#616163" transform="translate(478,351)"/>
<path d="M0 0 C0.33 0.66 0.66 1.32 1 2 C1.99 2 2.98 2 4 2 C4.33 3.65 4.66 5.3 5 7 C6.423125 6.9690625 6.423125 6.9690625 7.875 6.9375 C11 7 11 7 13 8 C13 8.99 13 9.98 13 11 C13.57492187 11.10957031 14.14984375 11.21914063 14.7421875 11.33203125 C17.29075493 12.08601919 18.97582599 13.1307789 21.125 14.6875 C22.14980469 15.40486328 22.14980469 15.40486328 23.1953125 16.13671875 C25 18 25 18 25.921875 20.95703125 C27.26923354 24.75990192 28.80492897 25.78045391 32.125 28 C33.10339844 28.67546875 34.08179688 29.3509375 35.08984375 30.046875 C36.05019531 30.69140625 37.01054687 31.3359375 38 32 C39.57211495 33.06933248 41.13603096 34.15092712 42.6875 35.25 C43.33074219 35.68828125 43.97398437 36.1265625 44.63671875 36.578125 C46 38 46 38 46 42 C47.299375 42.144375 48.59875 42.28875 49.9375 42.4375 C53.875 42.875 53.875 42.875 55 44 C55.0825 45.11375 55.165 46.2275 55.25 47.375 C55.61710067 51.08451299 55.61710067 51.08451299 58.25 52.8125 C60.92742698 54.0193783 60.92742698 54.0193783 63.5 54.8125 C66.34841983 56.16549942 67.51687363 57.87169579 69.3984375 60.3359375 C72.63950336 63.70348398 76.93143527 65.77216456 81 68 C81.33 67.34 81.66 66.68 82 66 C82 67.32 82 68.64 82 70 C77.85137659 69.27346443 74.30525126 67.2622821 70.625 65.3125 C69.90127197 64.93037354 69.17754395 64.54824707 68.43188477 64.15454102 C58.28099617 58.67376425 48.65342146 52.30226859 39 46 C39.66 44.68 40.32 43.36 41 42 C38.4622414 39.86828278 36.4710943 38.80278092 33.3125 37.625 C30 36 30 36 29.0625 33.3125 C29.041875 32.549375 29.02125 31.78625 29 31 C28.34 31 27.68 31 27 31 C27 30.34 27 29.68 27 29 C25.68 29 24.36 29 23 29 C23 28.34 23 27.68 23 27 C21.68 27 20.36 27 19 27 C19 26.01 19 25.02 19 24 C18.360625 24.165 17.72125 24.33 17.0625 24.5 C13.02413348 25.15932515 9.08192742 25.08003779 5 25 C5 24.67 5 24.34 5 24 C6.98 23.67 8.96 23.34 11 23 C10.54109375 22.39414062 10.0821875 21.78828125 9.609375 21.1640625 C5.05278493 14.94182816 0 8.00231583 0 0 Z " fill="#2B2C2E" transform="translate(357,421)"/>
<path d="M0 0 C0.66 0 1.32 0 2 0 C4.19795556 4.39591112 3.27471138 10.29813305 3.3125 15.125 C3.34150391 16.33671875 3.37050781 17.5484375 3.40039062 18.796875 C3.45145907 26.00931085 3.07335472 30.95451051 -1 37 C-4.54989478 40.1692875 -8.05108765 41.03163041 -12.75 40.875 C-18.18645374 39.41133938 -20.87215279 37.8655401 -24 33 C-23.75 31.125 -23.75 31.125 -23 29 C-22.96111651 26.66699067 -22.9551365 24.33290199 -23 22 C-23.33 23.98 -23.66 25.96 -24 28 C-24.33 28 -24.66 28 -25 28 C-25.66586494 21.6076966 -23.91608035 18.02525918 -20 13 C-17.28163443 10.10041006 -16.32018822 10.01600941 -12.25 9.8125 C-11.1775 9.874375 -10.105 9.93625 -9 10 C-8.67 10.66 -8.34 11.32 -8 12 C-10.475 13.485 -10.475 13.485 -13 15 C-12.34 15.33 -11.68 15.66 -11 16 C-11 16.99 -11 17.98 -11 19 C-10.01 19.33 -9.02 19.66 -8 20 C-8 19.01 -8 18.02 -8 17 C-7.01 17.33 -6.02 17.66 -5 18 C-5.33 20.97 -5.66 23.94 -6 27 C-5.01 27 -4.02 27 -3 27 C-2.67 27.66 -2.34 28.32 -2 29 C-1.97494385 28.19256348 -1.9498877 27.38512695 -1.92407227 26.55322266 C-1.80834513 22.91031083 -1.68551365 19.26767274 -1.5625 15.625 C-1.52318359 14.35398437 -1.48386719 13.08296875 -1.44335938 11.7734375 C-1.40146484 10.56171875 -1.35957031 9.35 -1.31640625 8.1015625 C-1.27974854 6.98088379 -1.24309082 5.86020508 -1.20532227 4.70556641 C-1 2 -1 2 0 0 Z " fill="#F7F7F7" transform="translate(273,389)"/>
<path d="M0 0 C0.68578125 0.22816406 1.3715625 0.45632813 2.078125 0.69140625 C2.78453125 0.86800781 3.4909375 1.04460937 4.21875 1.2265625 C6.171875 1.71484375 8.125 2.203125 10.078125 2.69140625 C10.078125 3.35140625 10.078125 4.01140625 10.078125 4.69140625 C13.543125 4.19640625 13.543125 4.19640625 17.078125 3.69140625 C17.078125 5.67140625 17.078125 7.65140625 17.078125 9.69140625 C16.418125 9.03140625 15.758125 8.37140625 15.078125 7.69140625 C15.078125 13.63140625 15.078125 19.57140625 15.078125 25.69140625 C14.418125 25.69140625 13.758125 25.69140625 13.078125 25.69140625 C13.078125 26.68140625 13.078125 27.67140625 13.078125 28.69140625 C11.428125 28.03140625 9.778125 27.37140625 8.078125 26.69140625 C8.078125 27.35140625 8.078125 28.01140625 8.078125 28.69140625 C5.24928753 30.10582499 3.20435755 30.01040957 0.078125 29.69140625 C-1.796875 27.87890625 -1.796875 27.87890625 -2.921875 25.69140625 C-2.921875 24.70140625 -2.921875 23.71140625 -2.921875 22.69140625 C-3.581875 22.69140625 -4.241875 22.69140625 -4.921875 22.69140625 C-4.921875 22.03140625 -4.921875 21.37140625 -4.921875 20.69140625 C-4.261875 20.69140625 -3.601875 20.69140625 -2.921875 20.69140625 C-2.921875 19.70140625 -2.921875 18.71140625 -2.921875 17.69140625 C-4.241875 17.69140625 -5.561875 17.69140625 -6.921875 17.69140625 C-7.251875 16.70140625 -7.581875 15.71140625 -7.921875 14.69140625 C-8.911875 15.18640625 -8.911875 15.18640625 -9.921875 15.69140625 C-10.5742964 10.47203505 -9.04263553 7.66231446 -6.30859375 3.42578125 C-4.48582045 1.14603098 -3.05919401 -0.49121205 0 0 Z " fill="#F8F8F8" transform="translate(337.921875,400.30859375)"/>
<path d="M0 0 C1.66611905 -0.042721 3.33382885 -0.04063832 5 0 C6 1 6 1 6 6 C10.62 6 15.24 6 20 6 C20.38063221 8.3260857 20.71269945 10.66055264 21 13 C20 14 20 14 16.83984375 14.09765625 C14.90818359 14.08025391 14.90818359 14.08025391 12.9375 14.0625 C11.64714844 14.05347656 10.35679687 14.04445313 9.02734375 14.03515625 C8.02832031 14.02355469 7.02929688 14.01195312 6 14 C6.33 17.96 6.66 21.92 7 26 C8.98 26 10.96 26 13 26 C13.99 22.535 13.99 22.535 15 19 C16.32 18.67 17.64 18.34 19 18 C21 21 21 21 20.9375 24.3125 C19.77237942 28.89530762 18.64138869 30.95312375 15 34 C10.93077111 34.6654085 6.74594423 34.87297211 3 33 C3 32.34 3 31.68 3 31 C2.34 31 1.68 31 1 31 C-0.70395358 27.29030271 -1.24777765 24.40369637 -1.23046875 20.33203125 C-1.22853516 19.27435547 -1.22660156 18.21667969 -1.22460938 17.12695312 C-1.21236328 16.03318359 -1.20011719 14.93941406 -1.1875 13.8125 C-1.18685547 12.70712891 -1.18621094 11.60175781 -1.18554688 10.46289062 C-1.14050904 2.28101809 -1.14050904 2.28101809 0 0 Z " fill="#292929" transform="translate(431,394)"/>
<path d="M0 0 C0.87835079 22.39794514 0.87835079 22.39794514 -7.25 32.125 C-8.1575 33.07375 -9.065 34.0225 -10 35 C-14.43170173 33.48103632 -18.03024076 31.07360191 -21.8125 28.375 C-22.7087207 27.74464844 -22.7087207 27.74464844 -23.62304688 27.1015625 C-25.08520565 26.07220272 -26.54304899 25.0367177 -28 24 C-24.45845523 22.04525126 -22.04452147 21.91207562 -18 22 C-17.34 21.67 -16.68 21.34 -16 21 C-15.60701599 17.98566709 -15.60701599 17.98566709 -15.5 14.5 C-15.34375 10.90625 -15.34375 10.90625 -15 8 C-14.34 7.67 -13.68 7.34 -13 7 C-13 8.32 -13 9.64 -13 11 C-12.34 10.34 -11.68 9.68 -11 9 C-11 8.01 -11 7.02 -11 6 C-9.35 5.67 -7.7 5.34 -6 5 C-8.475 4.505 -8.475 4.505 -11 4 C-11 3.67 -11 3.34 -11 3 C-8.36 3 -5.72 3 -3 3 C-3 2.34 -3 1.68 -3 1 C-1 0 -1 0 0 0 Z M-12 21 C-11 23 -11 23 -11 23 Z " fill="#F5F5F6" transform="translate(427,399)"/>
<path d="M0 0 C2.97 0 5.94 0 9 0 C9.32871094 1.23363281 9.32871094 1.23363281 9.6640625 2.4921875 C12.08166167 11.0029228 15.21773801 18.16467203 20.68359375 25.15234375 C22 27 22 27 22 29 C19.58303128 29.05411124 17.16728213 29.09372278 14.75 29.125 C14.06808594 29.14175781 13.38617188 29.15851563 12.68359375 29.17578125 C7.87601327 29.22245679 5.16326066 28.67174655 1.41186523 25.77270508 C-0.56404064 23.29180372 -0.34284208 21.5990512 -0.29296875 18.45703125 C-0.28330078 17.38388672 -0.27363281 16.31074219 -0.26367188 15.20507812 C-0.23853516 14.08552734 -0.21339844 12.96597656 -0.1875 11.8125 C-0.16719727 10.11577148 -0.16719727 10.11577148 -0.14648438 8.38476562 C-0.11109958 5.58936683 -0.06172948 2.79492108 0 0 Z " fill="#040404" transform="translate(302,400)"/>
<path d="M0 0 C1.98608699 1.71525694 2.95689457 2.88299954 3.875 5.375 C5.52915541 9.23469595 8.22741632 12.11370816 12 14 C12 14.66 12 15.32 12 16 C13.11375 16.0928125 13.11375 16.0928125 14.25 16.1875 C17.83127761 17.24560475 18.84857871 19.03252236 21 22 C21.66 22.33 22.32 22.66 23 23 C23.103125 23.969375 23.20625 24.93875 23.3125 25.9375 C23.6528125 27.4534375 23.6528125 27.4534375 24 29 C26.46255685 30.45291273 26.46255685 30.45291273 29 31 C29.33 30.34 29.66 29.68 30 29 C30.495 29.99 30.495 29.99 31 31 C31.99 31.309375 32.98 31.61875 34 31.9375 C34.99 32.288125 35.98 32.63875 37 33 C37.33 33.99 37.66 34.98 38 36 C38.99 36.33 39.98 36.66 41 37 C41 36.01 41 35.02 41 34 C41.66 34 42.32 34 43 34 C42.69078116 35.45903258 42.37751201 36.91720722 42.0625 38.375 C41.88847656 39.18710937 41.71445312 39.99921875 41.53515625 40.8359375 C41 43 41 43 40 45 C39.01 45 38.02 45 37 45 C33 40.65714286 33 40.65714286 33 38 C32.21625 37.9175 31.4325 37.835 30.625 37.75 C29.75875 37.5025 28.8925 37.255 28 37 C27.690625 36.34 27.38125 35.68 27.0625 35 C26.711875 34.34 26.36125 33.68 26 33 C25.154375 32.896875 24.30875 32.79375 23.4375 32.6875 C18.26135205 31.65227041 14.95412838 28.3654026 11 25 C10.67 27.64 10.34 30.28 10 33 C9.67 33 9.34 33 9 33 C8.88785156 31.54980469 8.88785156 31.54980469 8.7734375 30.0703125 C7.8915158 21.33755836 6.37811337 15.1845026 1 8 C0.16275391 6.87658203 0.16275391 6.87658203 -0.69140625 5.73046875 C-1.12324219 5.15941406 -1.55507813 4.58835937 -2 4 C-1.34 2.68 -0.68 1.36 0 0 Z " fill="#1B1B1B" transform="translate(471,508)"/>
<path d="M0 0 C0.680625 0.2475 1.36125 0.495 2.0625 0.75 C3.72769519 1.09060811 5.39407466 1.42558396 7.0625 1.75 C7.0625 2.08 7.0625 2.41 7.0625 2.75 C5.4125 3.08 3.7625 3.41 2.0625 3.75 C5.0325 4.245 5.0325 4.245 8.0625 4.75 C8.0625 5.08 8.0625 5.41 8.0625 5.75 C6.0825 6.41 4.1025 7.07 2.0625 7.75 C2.71835189 11.35992379 2.71835189 11.35992379 4.0625 14.75 C4.7225 15.08 5.3825 15.41 6.0625 15.75 C5.7325 16.41 5.4025 17.07 5.0625 17.75 C5.7225 17.75 6.3825 17.75 7.0625 17.75 C7.31 17.13125 7.5575 16.5125 7.8125 15.875 C9.26878639 13.39931313 10.44062506 12.79874998 13.0625 11.75 C11.6307479 16.76113235 9.07804307 18.69469549 5.0625 21.75 C5.3925 22.41 5.7225 23.07 6.0625 23.75 C4.4125 24.74 2.7625 25.73 1.0625 26.75 C-0.5875 25.43 -2.2375 24.11 -3.9375 22.75 C-2.6175 24.4 -1.2975 26.05 0.0625 27.75 C-3.19261789 27.18877278 -4.93590071 26.41879905 -6.9375 23.75 C-7.625 21.0625 -7.625 21.0625 -7.9375 18.75 C-7.6075 18.75 -7.2775 18.75 -6.9375 18.75 C-6.89882813 17.06970703 -6.89882813 17.06970703 -6.859375 15.35546875 C-6.80309365 13.88277354 -6.74574632 12.4101188 -6.6875 10.9375 C-6.67332031 10.19951172 -6.65914062 9.46152344 -6.64453125 8.70117188 C-6.39714263 3.23388342 -6.39714263 3.23388342 -4.01171875 0.72265625 C-1.9375 -0.25 -1.9375 -0.25 0 0 Z M3.0625 7.75 C5.0625 8.75 5.0625 8.75 5.0625 8.75 Z M9.0625 10.75 C9.0625 11.74 9.0625 12.73 9.0625 13.75 C8.0725 14.08 7.0825 14.41 6.0625 14.75 C6.0625 14.09 6.0625 13.43 6.0625 12.75 C7.0525 12.09 8.0425 11.43 9.0625 10.75 Z " fill="#F4F4F4" transform="translate(521.9375,400.25)"/>
<path d="M0 0 C0.66 0 1.32 0 2 0 C2.07347656 0.85271484 2.07347656 0.85271484 2.1484375 1.72265625 C2.22320312 2.49480469 2.29796875 3.26695312 2.375 4.0625 C2.44460938 4.81660156 2.51421875 5.57070313 2.5859375 6.34765625 C2.94813934 9.1034882 2.94813934 9.1034882 3.96875 12.0703125 C5.49263928 17.2042525 5.7233821 22.49600074 6.125 27.8125 C6.21136719 28.84181641 6.29773438 29.87113281 6.38671875 30.93164062 C6.89439605 37.30178199 7.11173594 43.61065535 7 50 C5.00045254 50.04254356 2.99958364 50.04080783 1 50 C0 49 0 49 -0.4375 45.5 C-0.623125 44.345 -0.80875 43.19 -1 42 C-1.66 41.67 -2.32 41.34 -3 41 C-2.67 40.01 -2.34 39.02 -2 38 C-1.77712209 35.12786007 -1.60090529 32.27089308 -1.46484375 29.39453125 C-1.40037804 28.13572395 -1.40037804 28.13572395 -1.33460999 26.85148621 C-1.19829707 24.17200598 -1.06782862 21.49227732 -0.9375 18.8125 C-0.84608799 16.99542331 -0.75429575 15.1783657 -0.66210938 13.36132812 C-0.43699418 8.90776151 -0.21712004 4.45396326 0 0 Z " fill="#39383B" transform="translate(485,352)"/>
<path d="M0 0 C0.5671875 0.144375 1.134375 0.28875 1.71875 0.4375 C3.97275896 0.99328303 6.23236595 1.50298432 8.5 2 C11.34588774 2.62375622 14.17484906 3.28852442 17 4 C17.19632025 7.6245793 17.38055978 11.24967267 17.5625 14.875 C17.61857422 15.90753906 17.67464844 16.94007813 17.73242188 18.00390625 C17.78076172 18.99003906 17.82910156 19.97617187 17.87890625 20.9921875 C17.9260376 21.90339355 17.97316895 22.81459961 18.02172852 23.75341797 C18 26 18 26 17 28 C15.35 28 13.7 28 12 28 C11.87882812 26.78441406 11.75765625 25.56882812 11.6328125 24.31640625 C11.46402922 22.73171883 11.29473184 21.1470861 11.125 19.5625 C11.04636719 18.76005859 10.96773438 17.95761719 10.88671875 17.13085938 C10.66154237 15.07829006 10.33777413 13.03706991 10 11 C9.34 10.67 8.68 10.34 8 10 C7.34 10.66 6.68 11.32 6 12 C5.67 11.67 5.34 11.34 5 11 C4.34 14.96 3.68 18.92 3 23 C2.67 23 2.34 23 2 23 C1.97285265 20.77090129 1.95353746 18.54170633 1.9375 16.3125 C1.92589844 15.07113281 1.91429687 13.82976562 1.90234375 12.55078125 C1.98521327 9.53764546 2.29160551 6.91724661 3 4 C1.02 4.99 1.02 4.99 -1 6 C-0.67 4.02 -0.34 2.04 0 0 Z " fill="#808184" transform="translate(365,400)"/>
<path d="M0 0 C6.06951242 6.62128628 5.25139398 15.62020079 5 24 C1.3125 25.1484375 1.3125 25.1484375 -1.5 23.8125 C-2.325 23.214375 -3.15 22.61625 -4 22 C-4.763125 21.46375 -5.52625 20.9275 -6.3125 20.375 C-8.91226489 16.71607164 -8.73088786 13.34147388 -8 9 C-6.67013658 5.40394075 -5.05195446 2.67208202 -1.75 0.5625 C-1.1725 0.376875 -0.595 0.19125 0 0 Z " fill="#2C2C2C" transform="translate(458,373)"/>
<path d="M0 0 C0.99 0 1.98 0 3 0 C3 1.98 3 3.96 3 6 C7.95 6 12.9 6 18 6 C18 7.32 18 8.64 18 10 C13.05 10 8.1 10 3 10 C3.103125 12.083125 3.20625 14.16625 3.3125 16.3125 C3.37050781 17.48425781 3.42851562 18.65601563 3.48828125 19.86328125 C3.75164266 22.96041799 3.75164266 22.96041799 5.390625 24.91015625 C7.01330105 26.21149898 7.01330105 26.21149898 9.4375 26.125 C13.33478857 24.41399526 14.14995891 21.76860222 16 18 C16.66 18 17.32 18 18 18 C18.32469403 22.65394781 17.79790518 25.23358918 15 29 C11.85088521 30.57455739 9.47991184 30.34799118 6 30 C1.76281371 27.72676502 1.76281371 27.72676502 0 25 C-0.74827744 20.70957184 -0.56457669 16.52588958 -0.375 12.1875 C-0.34792969 11.01767578 -0.32085937 9.84785156 -0.29296875 8.64257812 C-0.22237105 5.75983865 -0.12380574 2.88086429 0 0 Z " fill="#040404" transform="translate(432,396)"/>
<path d="M0 0 C7.06277309 0.26158419 13.39162487 2.63199891 20 5 C19.9278125 5.83144531 19.855625 6.66289062 19.78125 7.51953125 C19.64203125 9.14955078 19.64203125 9.14955078 19.5 10.8125 C19.36078125 12.43091797 19.36078125 12.43091797 19.21875 14.08203125 C18.96262162 17.01090811 18.96262162 17.01090811 19 20 C18.236875 19.505 17.47375 19.01 16.6875 18.5 C14.07636249 16.75631692 14.07636249 16.75631692 11 17 C10.10585322 15.65877983 9.22135781 14.31026066 8.3828125 12.93359375 C5.45693702 8.84232719 1.61549214 5.47643475 -2 2 C-1.34 1.34 -0.68 0.68 0 0 Z " fill="#B3B4B6" transform="translate(444,351)"/>
<path d="M0 0 C5.94 0.99 5.94 0.99 12 2 C11.67 2.66 11.34 3.32 11 4 C10.84932786 5.4465242 10.75138964 6.8987934 10.68359375 8.3515625 C10.64169922 9.20234375 10.59980469 10.053125 10.55664062 10.9296875 C10.51732422 11.81914062 10.47800781 12.70859375 10.4375 13.625 C10.39431641 14.5221875 10.35113281 15.419375 10.30664062 16.34375 C10.20043139 18.56234283 10.09838806 20.7810488 10 23 C8.88253481 22.04459553 7.76541386 21.08878842 6.6484375 20.1328125 C6.02630371 19.60059082 5.40416992 19.06836914 4.76318359 18.52001953 C-1.64764843 12.99331776 -1.64764843 12.99331776 -2 9 C-1.61062073 5.82006927 -1.01358339 3.04075016 0 0 Z " fill="#818486" transform="translate(464,357)"/>
<path d="M0 0 C2.97 0.99 5.94 1.98 9 3 C9 3.66 9 4.32 9 5 C9.53625 5.2475 10.0725 5.495 10.625 5.75 C13 7 13 7 15.9375 9 C18.80094273 11.04976843 18.80094273 11.04976843 21.5625 11.875 C24.39336673 13.18155387 25.53927414 14.90103323 27.3984375 17.3359375 C30.63950336 20.70348398 34.93143527 22.77216456 39 25 C39.33 24.34 39.66 23.68 40 23 C40 24.32 40 25.64 40 27 C35.85137659 26.27346443 32.30525126 24.2622821 28.625 22.3125 C27.53940796 21.7393103 27.53940796 21.7393103 26.43188477 21.15454102 C16.28099617 15.67376425 6.65342146 9.30226859 -3 3 C-2.01 2.01 -1.02 1.02 0 0 Z " fill="#19191A" transform="translate(399,464)"/>
<path d="M0 0 C0 0.66 0 1.32 0 2 C-0.66 2 -1.32 2 -2 2 C-2 3.32 -2 4.64 -2 6 C-1.34 6 -0.68 6 0 6 C0 6.66 0 7.32 0 8 C-2.31 7.67 -4.62 7.34 -7 7 C-6.67 6.34 -6.34 5.68 -6 5 C-5.01 5 -4.02 5 -3 5 C-3 4.34 -3 3.68 -3 3 C-6.62793998 4.86566488 -6.62793998 4.86566488 -9 8 C-8.67 8.66 -8.34 9.32 -8 10 C-7.34 10 -6.68 10 -6 10 C-6 9.34 -6 8.68 -6 8 C-5.01 8.33 -4.02 8.66 -3 9 C-3.63808594 9.53367187 -4.27617187 10.06734375 -4.93359375 10.6171875 C-7.46023276 13.53070318 -7.65699826 15.33099518 -8.0625 19.125 C-8.41015625 22.3203125 -8.41015625 22.3203125 -9 25 C-9.99 25.66 -10.98 26.32 -12 27 C-13.86715507 25.13284493 -13.13245683 22.49606175 -13.13671875 20.015625 C-13.13091797 18.83226562 -13.13091797 18.83226562 -13.125 17.625 C-13.12886719 16.84382813 -13.13273437 16.06265625 -13.13671875 15.2578125 C-13.13100915 11.9234054 -13.06131005 9.18393014 -12 6 C-12.99 6.495 -12.99 6.495 -14 7 C-13.875 4.6875 -13.875 4.6875 -13 2 C-8.45623229 -1.24554837 -5.34831616 -1.17662956 0 0 Z " fill="#F3F3F3" transform="translate(295,400)"/>
<path d="M0 0 C1.97485314 3.86991424 3.79329168 7.8110825 5.625 11.75 C5.94984375 12.44738281 6.2746875 13.14476562 6.609375 13.86328125 C7.40674838 15.5752888 8.20344186 17.28761299 9 19 C7.22992286 19.08114106 5.45877902 19.13925505 3.6875 19.1875 C2.70136719 19.22230469 1.71523438 19.25710938 0.69921875 19.29296875 C-2 19 -2 19 -3.8046875 17.765625 C-5.25085952 15.62944933 -5.55781929 14.12225699 -5.8125 11.5625 C-5.94591797 10.41974609 -5.94591797 10.41974609 -6.08203125 9.25390625 C-5.98619717 6.62075071 -5.47025317 5.17903971 -4 3 C-3.01 2.67 -2.02 2.34 -1 2 C-0.67 1.34 -0.34 0.68 0 0 Z " fill="#060606" transform="translate(311,404)"/>
<path d="M0 0 C0.33 0.66 0.66 1.32 1 2 C-1.475 3.485 -1.475 3.485 -4 5 C-3.34 5.66 -2.68 6.32 -2 7 C-3.32 7.33 -4.64 7.66 -6 8 C-6 7.34 -6 6.68 -6 6 C-6.99 6 -7.98 6 -9 6 C-10.42258812 9.82320557 -11.24042276 12.91281305 -11 17 C-10.34 17 -9.68 17 -9 17 C-9 17.66 -9 18.32 -9 19 C-9.66 19 -10.32 19 -11 19 C-9.08864614 22.53600465 -7.37357234 24.78972846 -4 27 C-4.66 27 -5.32 27 -6 27 C-6 27.66 -6 28.32 -6 29 C-3.69 29 -1.38 29 1 29 C0.67 29.66 0.34 30.32 0 31 C-5.80861809 30.32977484 -9.20783182 29.84060516 -13.3125 25.625 C-15 23 -15 23 -14.75 21.125 C-14.5025 20.42375 -14.255 19.7225 -14 19 C-13.96111651 16.66699067 -13.9551365 14.33290199 -14 12 C-14.33 13.98 -14.66 15.96 -15 18 C-15.33 18 -15.66 18 -16 18 C-16.66586494 11.6076966 -14.91608035 8.02525918 -11 3 C-7.65412759 -0.56893057 -4.74830363 -0.27394059 0 0 Z " fill="#F1F1F1" transform="translate(264,399)"/>
<path d="M0 0 C0.66 0.33 1.32 0.66 2 1 C1.83628906 1.62261719 1.67257812 2.24523437 1.50390625 2.88671875 C0.80465098 7.20692382 0.89515607 11.44456045 0.9375 15.8125 C0.94201172 16.69615234 0.94652344 17.57980469 0.95117188 18.49023438 C0.96290134 20.66018559 0.98083505 22.83010172 1 25 C-0.98 25 -2.96 25 -5 25 C-5.33 23.35 -5.66 21.7 -6 20 C-6.99 20 -7.98 20 -9 20 C-9 19.34 -9 18.68 -9 18 C-9.66 18 -10.32 18 -11 18 C-10.505 16.515 -10.505 16.515 -10 15 C-8.02 15.495 -8.02 15.495 -6 16 C-6.03480469 15.32453125 -6.06960938 14.6490625 -6.10546875 13.953125 C-6.13253906 13.06109375 -6.15960938 12.1690625 -6.1875 11.25 C-6.22230469 10.36828125 -6.25710938 9.4865625 -6.29296875 8.578125 C-5.94174859 5.48738757 -5.10268683 4.25462924 -3 2 C-2.01 1.34 -1.02 0.68 0 0 Z " fill="#5E5E60" transform="translate(367,403)"/>
<path d="M0 0 C8.99749965 3.26179059 16.4341804 10.31860101 22 18 C22.71875 20.26953125 22.71875 20.26953125 23 22 C22.01 22.33 21.02 22.66 20 23 C19.34 23.66 18.68 24.32 18 25 C18.020625 24.05125 18.04125 23.1025 18.0625 22.125 C18.22551826 19.09333717 18.22551826 19.09333717 17 17 C16.34 17 15.68 17 15 17 C14.67 17.99 14.34 18.98 14 20 C13.7525 19.21625 13.505 18.4325 13.25 17.625 C11.84610901 14.67682892 10.99324263 14.0975223 8 13 C7.01 13.66 6.02 14.32 5 15 C3.33333333 10 1.66666667 5 0 0 Z " fill="#EFF0F1" transform="translate(456,367)"/>
<path d="M0 0 C1.98608699 1.71525694 2.95689457 2.88299954 3.875 5.375 C5.52915541 9.23469595 8.22741632 12.11370816 12 14 C12 14.66 12 15.32 12 16 C13.11375 16.0928125 13.11375 16.0928125 14.25 16.1875 C17.83127761 17.24560475 18.84857871 19.03252236 21 22 C21.66 22.33 22.32 22.66 23 23 C23.625 26.0625 23.625 26.0625 24 29 C21.36 27.68 18.72 26.36 16 25 C16 24.34 16 23.68 16 23 C13.66785852 21.79371992 11.50357861 20.8345262 9 20 C8.67 20.66 8.34 21.32 8 22 C7.67128906 21.05640625 7.67128906 21.05640625 7.3359375 20.09375 C5.04650492 13.91414337 2.22940189 9.04708625 -2 4 C-1.34 2.68 -0.68 1.36 0 0 Z " fill="#303031" transform="translate(471,508)"/>
<path d="M0 0 C0.33 0 0.66 0 1 0 C1 1.98 1 3.96 1 6 C1.721875 6.12375 2.44375 6.2475 3.1875 6.375 C6.02737984 7.00608441 8.42363418 7.64025137 11 9 C12.40823271 12.01764151 11.77743896 13.89024418 11 17 C10.90747105 19.6730586 10.95540125 22.32407493 11 25 C5.26646451 22.60899371 3.12293411 17.51323348 0.6875 12.0625 C-0.22330026 8.00529883 -0.16555313 4.13882824 0 0 Z " fill="#F7F9F9" transform="translate(385,393)"/>
<path d="M0 0 C0.99 0.33 1.98 0.66 3 1 C2.01 1.495 2.01 1.495 1 2 C1.49113281 2.80695313 1.98226563 3.61390625 2.48828125 4.4453125 C4.34703917 8.81603526 4.34204333 12.1990735 4.1875 16.875 C4.17396484 17.65875 4.16042969 18.4425 4.14648438 19.25 C4.11141789 21.16696782 4.05762072 23.08357751 4 25 C3.01 25.33 2.02 25.66 1 26 C1 26.66 1 27.32 1 28 C1.99 28.33 2.98 28.66 4 29 C-1.875 28.125 -1.875 28.125 -3 27 C-3.15686249 25.44051458 -3.25076639 23.87457332 -3.31640625 22.30859375 C-3.37924805 20.89223633 -3.37924805 20.89223633 -3.44335938 19.44726562 C-3.50233398 17.95743164 -3.50233398 17.95743164 -3.5625 16.4375 C-3.60568359 15.44041016 -3.64886719 14.44332031 -3.69335938 13.41601562 C-3.79980298 10.9441585 -3.90181928 8.4721969 -4 6 C-0.125 6.875 -0.125 6.875 1 8 C1.07319621 10.69654854 1.09242537 13.36691458 1.0625 16.0625 C1.05798828 16.82111328 1.05347656 17.57972656 1.04882812 18.36132812 C1.0370068 20.24091871 1.01907078 22.12046899 1 24 C1.66 24 2.32 24 3 24 C2.91254425 21.60250616 2.80562925 19.20851779 2.6875 16.8125 C2.66494141 16.13896484 2.64238281 15.46542969 2.61914062 14.77148438 C2.38114743 10.33615671 1.44257366 7.66386049 -1 4 C-0.6875 1.6875 -0.6875 1.6875 0 0 Z " fill="#F2F2F2" transform="translate(502,401)"/>
<path d="M0 0 C0.33 0 0.66 0 1 0 C1.33 3.63 1.66 7.26 2 11 C2.66 11 3.32 11 4 11 C4.02899599 14.77081722 4.04679729 18.54160583 4.0625 22.3125 C4.07087891 23.38435547 4.07925781 24.45621094 4.08789062 25.56054688 C4.09111328 26.58857422 4.09433594 27.61660156 4.09765625 28.67578125 C4.10289307 29.62364502 4.10812988 30.57150879 4.11352539 31.5480957 C4 34 4 34 3 37 C2.34 37 1.68 37 1 37 C1.33 34.36 1.66 31.72 2 29 C1.34 29 0.68 29 0 29 C-0.33 27.68 -0.66 26.36 -1 25 C-1.33 26.98 -1.66 28.96 -2 31 C-2.99 31 -3.98 31 -5 31 C-4.72285156 30.01902344 -4.44570313 29.03804688 -4.16015625 28.02734375 C-1.59952366 18.61173329 -0.28054496 9.76296467 0 0 Z " fill="#EDEDED" transform="translate(463,391)"/>
<path d="M0 0 C0.33 0 0.66 0 1 0 C1.33 5.28 1.66 10.56 2 16 C1.01 15.67 0.02 15.34 -1 15 C-1 15.66 -1 16.32 -1 17 C-3.82883747 18.41441874 -5.87376745 18.31900332 -9 18 C-10.875 16.1875 -10.875 16.1875 -12 14 C-12 13.01 -12 12.02 -12 11 C-12.66 11 -13.32 11 -14 11 C-14 10.34 -14 9.68 -14 9 C-13.34 9 -12.68 9 -12 9 C-11.67 8.01 -11.34 7.02 -11 6 C-10.67 6.99 -10.34 7.98 -10 9 C-8.0509375 8.7215625 -8.0509375 8.7215625 -6.0625 8.4375 C-3.84765625 8.12109375 -3.84765625 8.12109375 -2 8 C-1.67 8.33 -1.34 8.66 -1 9 C-0.67 6.03 -0.34 3.06 0 0 Z " fill="#F6F5F6" transform="translate(347,412)"/>
<path d="M0 0 C0.639375 0.66 1.27875 1.32 1.9375 2 C7.51677284 7.56342263 13.27513137 12.86161931 20 17 C19.01 17.33 18.02 17.66 17 18 C16.030625 17.484375 15.06125 16.96875 14.0625 16.4375 C13.051875 15.963125 12.04125 15.48875 11 15 C8.91666667 15.83333333 8.91666667 15.83333333 7 17 C4.3125 16.75 4.3125 16.75 2 16 C0.73892419 13.47784838 0.67246684 11.37091315 0.4375 8.5625 C0.35371094 7.59441406 0.26992188 6.62632812 0.18359375 5.62890625 C0.05280814 3.75616766 0 1.87729984 0 0 Z " fill="#8C8E90" transform="translate(389,412)"/>
<path d="M0 0 C1.69832609 5.83799592 2.25287193 10.93107371 2 17 C-1.68268739 16.50233954 -3.65028767 15.93714041 -6 13 C-7.44430855 10.11138291 -7.37688506 8.20352299 -7 5 C-2.86956522 0 -2.86956522 0 0 0 Z " fill="#0A0A0A" transform="translate(461,377)"/>
<path d="M0 0 C0.33 0 0.66 0 1 0 C3.29612756 18.82004556 3.29612756 18.82004556 3 28 C1.35 28 -0.3 28 -2 28 C-2.05783842 23.70838953 -2.0935412 19.41687855 -2.125 15.125 C-2.14175781 13.90167969 -2.15851563 12.67835938 -2.17578125 11.41796875 C-2.18222656 10.25136719 -2.18867188 9.08476562 -2.1953125 7.8828125 C-2.20578613 6.80402832 -2.21625977 5.72524414 -2.22705078 4.61376953 C-2 2 -2 2 0 0 Z " fill="#333335" transform="translate(489,374)"/>
<path d="M0 0 C0.66 0.33 1.32 0.66 2 1 C2 6.28 2 11.56 2 17 C2.66 17 3.32 17 4 17 C4 13.04 4 9.08 4 5 C4.33 5 4.66 5 5 5 C5 9.29 5 13.58 5 18 C5.66 18 6.32 18 7 18 C7 13.71 7 9.42 7 5 C7.33 5 7.66 5 8 5 C8.02699725 7.27076842 8.04639453 9.54162821 8.0625 11.8125 C8.07410156 13.07707031 8.08570313 14.34164063 8.09765625 15.64453125 C8 19 8 19 7 22 C5.02 22 3.04 22 1 22 C1 21.01 1 20.02 1 19 C0.67 18.34 0.34 17.68 0 17 C-0.66 17.33 -1.32 17.66 -2 18 C-2 13.05 -2 8.1 -2 3 C-1.34 3 -0.68 3 0 3 C0 2.01 0 1.02 0 0 Z " fill="#F1F1F1" transform="translate(487,407)"/>
<path d="M0 0 C0.33 0.66 0.66 1.32 1 2 C1.99 2 2.98 2 4 2 C4.33 3.65 4.66 5.3 5 7 C6.423125 6.9690625 6.423125 6.9690625 7.875 6.9375 C11 7 11 7 13 8 C13 8.99 13 9.98 13 11 C13.57234375 11.10183594 14.1446875 11.20367187 14.734375 11.30859375 C17.40275646 12.12291016 19.05965688 13.34673122 21.25 15.0625 C21.95640625 15.61035156 22.6628125 16.15820312 23.390625 16.72265625 C23.92171875 17.14417969 24.4528125 17.56570313 25 18 C24.67 19.32 24.34 20.64 24 22 C23.62875 21.608125 23.2575 21.21625 22.875 20.8125 C17.71538092 15.50005852 17.71538092 15.50005852 11 13 C11 12.34 11 11.68 11 11 C9.576875 11.061875 9.576875 11.061875 8.125 11.125 C5 11 5 11 3 9 C0.87491756 5.81237635 0.4979837 3.73487777 0 0 Z " fill="#3D3E40" transform="translate(357,421)"/>
<path d="M0 0 C2.97 0.495 2.97 0.495 6 1 C6.21192221 6.19209404 5.5912689 10.126739 4 15 C4.66 15.33 5.32 15.66 6 16 C5.01 16.33 4.02 16.66 3 17 C-1.66597938 12.78556701 -1.66597938 12.78556701 -2 9 C-1.61062073 5.82006927 -1.01358339 3.04075016 0 0 Z " fill="#909395" transform="translate(464,357)"/>
<path d="M0 0 C2.10388569 -0.05402274 4.20816714 -0.09280256 6.3125 -0.125 C8.07013672 -0.15980469 8.07013672 -0.15980469 9.86328125 -0.1953125 C13 0 13 0 16 2 C16.94921875 4.3828125 16.94921875 4.3828125 17.6875 7.125 C17.93886719 8.03507812 18.19023437 8.94515625 18.44921875 9.8828125 C18.63097656 10.58148438 18.81273437 11.28015625 19 12 C17.68 11.34 16.36 10.68 15 10 C14.34 13.3 13.68 16.6 13 20 C12.67 20 12.34 20 12 20 C12 14.72 12 9.44 12 4 C9.03 3.505 9.03 3.505 6 3 C4.88625 2.814375 3.7725 2.62875 2.625 2.4375 C1.75875 2.293125 0.8925 2.14875 0 2 C0 1.34 0 0.68 0 0 Z " fill="#919394" transform="translate(370,400)"/>
<path d="M0 0 C2.94956528 1.36944102 5.52468811 2.87830409 8 5 C8 5.66 8 6.32 8 7 C8.928125 7.4640625 8.928125 7.4640625 9.875 7.9375 C11.25 8.625 12.625 9.3125 14 10 C14.33 10.99 14.66 11.98 15 13 C15.66 13.66 16.32 14.32 17 15 C15.68 15 14.36 15 13 15 C13 14.01 13 13.02 13 12 C12.360625 12.165 11.72125 12.33 11.0625 12.5 C7.02413348 13.15932515 3.08192742 13.08003779 -1 13 C-1 12.67 -1 12.34 -1 12 C0.98 11.67 2.96 11.34 5 11 C4.6390625 10.54109375 4.278125 10.0821875 3.90625 9.609375 C3.21015625 8.68898438 3.21015625 8.68898438 2.5 7.75 C2.0359375 7.14671875 1.571875 6.5434375 1.09375 5.921875 C0 4 0 4 0 0 Z " fill="#191A1B" transform="translate(363,433)"/>
<path d="M0 0 C0 1.98 0 3.96 0 6 C-0.66 5.34 -1.32 4.68 -2 4 C-2 9.94 -2 15.88 -2 22 C-2.99 22.33 -3.98 22.66 -5 23 C-5.33 17.39 -5.66 11.78 -6 6 C-7.32 6.33 -8.64 6.66 -10 7 C-9.34 5.68 -8.68 4.36 -8 3 C-7.34 3 -6.68 3 -6 3 C-6 2.34 -6 1.68 -6 1 C-3 0 -3 0 0 0 Z " fill="#F1F1F2" transform="translate(355,404)"/>
<path d="M0 0 C0.33 0 0.66 0 1 0 C1.33 16.5 1.66 33 2 50 C1.34 49.67 0.68 49.34 0 49 C-0.33333333 46.66666667 -0.66666667 44.33333333 -1 42 C-1.66 41.67 -2.32 41.34 -3 41 C-2.67 40.01 -2.34 39.02 -2 38 C-1.77712209 35.12786007 -1.60090529 32.27089308 -1.46484375 29.39453125 C-1.40037804 28.13572395 -1.40037804 28.13572395 -1.33460999 26.85148621 C-1.19829707 24.17200598 -1.06782862 21.49227732 -0.9375 18.8125 C-0.84608799 16.99542331 -0.75429575 15.1783657 -0.66210938 13.36132812 C-0.43699418 8.90776151 -0.21712004 4.45396326 0 0 Z " fill="#48474A" transform="translate(485,352)"/>
<path d="M0 0 C1.65 0 3.3 0 5 0 C4.67 0.66 4.34 1.32 4 2 C5.32 2.66 6.64 3.32 8 4 C5.36 4.66 2.72 5.32 0 6 C0 5.34 0 4.68 0 4 C-0.99 4.66 -1.98 5.32 -3 6 C-3.99 6 -4.98 6 -6 6 C-6 6.66 -6 7.32 -6 8 C-6.7425 8.12375 -7.485 8.2475 -8.25 8.375 C-10.80141485 8.95486701 -12.7267573 9.73708739 -15 11 C-14.45276317 7.62537285 -13.9451 5.91765 -12 3 C-8.17853466 1.23624677 -4.0062983 2.39905525 0 3 C0 2.01 0 1.02 0 0 Z " fill="#F5F5F5" transform="translate(492,399)"/>
<path d="M0 0 C5.38210007 0.26469345 5.38210007 0.26469345 8 1 C9.6875 3.5 9.6875 3.5 11 6 C12.65821773 6.37309899 14.32577014 6.70700977 16 7 C17.875 8.8125 17.875 8.8125 19 11 C18.6875 13.25 18.6875 13.25 18 15 C17.2265625 14.3503125 17.2265625 14.3503125 16.4375 13.6875 C13.92367576 11.79927615 13.92367576 11.79927615 10.3125 10.625 C7 9 7 9 6.0625 6.3125 C6.041875 5.549375 6.02125 4.78625 6 4 C5.34 4 4.68 4 4 4 C4 3.34 4 2.68 4 2 C2.68 2 1.36 2 0 2 C0 1.34 0 0.68 0 0 Z " fill="#1C1B1E" transform="translate(380,448)"/>
<path d="M0 0 C0.66 0.33 1.32 0.66 2 1 C1.67 1.99 1.34 2.98 1 4 C0.34 3.67 -0.32 3.34 -1 3 C-1.2165625 3.928125 -1.2165625 3.928125 -1.4375 4.875 C-2 7 -2 7 -3 9 C-3.23029956 11.37123246 -3.41119942 13.74741943 -3.5625 16.125 C-3.64628906 17.40632813 -3.73007812 18.68765625 -3.81640625 20.0078125 C-3.90728516 21.48894531 -3.90728516 21.48894531 -4 23 C-4.66 22.67 -5.32 22.34 -6 22 C-6 21.34 -6 20.68 -6 20 C-6.99 20 -7.98 20 -9 20 C-9 19.34 -9 18.68 -9 18 C-9.66 18 -10.32 18 -11 18 C-10.505 16.515 -10.505 16.515 -10 15 C-8.02 15.495 -8.02 15.495 -6 16 C-6.03480469 15.32453125 -6.06960938 14.6490625 -6.10546875 13.953125 C-6.13253906 13.06109375 -6.15960938 12.1690625 -6.1875 11.25 C-6.22230469 10.36828125 -6.25710938 9.4865625 -6.29296875 8.578125 C-5.94174859 5.48738757 -5.10268683 4.25462924 -3 2 C-2.01 1.34 -1.02 0.68 0 0 Z " fill="#78777A" transform="translate(367,403)"/>
<path d="M0 0 C2.1875 0.125 2.1875 0.125 5 1 C6.15342375 2.41706346 7.30158506 3.83949075 8.3984375 5.30078125 C11.61140347 8.70965978 15.92433654 10.76827749 20 13 C20.33 12.34 20.66 11.68 21 11 C21 12.32 21 13.64 21 15 C18.00843299 14.36355878 15.58061047 13.38047987 12.890625 11.93359375 C12.13652344 11.53076172 11.38242187 11.12792969 10.60546875 10.71289062 C9.82816406 10.29201172 9.05085938 9.87113281 8.25 9.4375 C7.45722656 9.01275391 6.66445313 8.58800781 5.84765625 8.15039062 C3.89628933 7.10417583 1.94720186 6.05394047 0 5 C0 3.33333333 0 1.66666667 0 0 Z " fill="#2D2C2D" transform="translate(418,476)"/>
<path d="M0 0 C1.11375 1.2375 1.11375 1.2375 2.25 2.5 C6.82982655 6.39889311 12.33592763 5.36779691 18 5 C18.99 5 19.98 5 21 5 C21.33 6.32 21.66 7.64 22 9 C19.58303128 9.05411124 17.16728213 9.09372278 14.75 9.125 C14.06808594 9.14175781 13.38617188 9.15851563 12.68359375 9.17578125 C7.8161589 9.2230379 5.0279482 8.59338787 1.25 5.625 C0 4 0 4 0 0 Z " fill="#2A2A2A" transform="translate(302,420)"/>
<path d="M0 0 C0.75 1.75 0.75 1.75 1 4 C0.360625 4.61875 -0.27875 5.2375 -0.9375 5.875 C-3.29785471 7.88859514 -3.29785471 7.88859514 -3.4375 11.125 C-3.293125 12.07375 -3.14875 13.0225 -3 14 C0.08888522 16.05925681 0.70935927 16.2390374 4.1875 16.125 C5.445625 16.08375 6.70375 16.0425 8 16 C8.33 16.99 8.66 17.98 9 19 C7.22992286 19.08114106 5.45877902 19.13925505 3.6875 19.1875 C2.70136719 19.22230469 1.71523438 19.25710938 0.69921875 19.29296875 C-2 19 -2 19 -3.8046875 17.765625 C-5.25085952 15.62944933 -5.55781929 14.12225699 -5.8125 11.5625 C-5.94591797 10.41974609 -5.94591797 10.41974609 -6.08203125 9.25390625 C-5.98619717 6.62075071 -5.47025317 5.17903971 -4 3 C-3.01 2.67 -2.02 2.34 -1 2 C-0.67 1.34 -0.34 0.68 0 0 Z " fill="#2C2C2C" transform="translate(311,404)"/>
<path d="M0 0 C-0.35000997 7.24158565 -1.05602409 13.34405447 -4 20 C-4.33 20 -4.66 20 -5 20 C-5.08112454 17.41603321 -5.14054748 14.83462432 -5.1875 12.25 C-5.21263672 11.52039063 -5.23777344 10.79078125 -5.26367188 10.0390625 C-5.308764 6.7323069 -5.22638385 4.41067943 -3.61328125 1.484375 C-2 0 -2 0 0 0 Z " fill="#272727" transform="translate(463,400)"/>
<path d="M0 0 C3.4375 0.8125 3.4375 0.8125 7 2 C7.33 2.99 7.66 3.98 8 5 C8.99 5.33 9.98 5.66 11 6 C11 5.01 11 4.02 11 3 C11.66 3 12.32 3 13 3 C12.71758359 4.46015291 12.42373386 5.91809793 12.125 7.375 C11.96257813 8.18710937 11.80015625 8.99921875 11.6328125 9.8359375 C11 12 11 12 9 14 C8.67 12.35 8.34 10.7 8 9 C7.01 8.67 6.02 8.34 5 8 C5 7.01 5 6.02 5 5 C4.360625 4.731875 3.72125 4.46375 3.0625 4.1875 C1 3 1 3 0 0 Z " fill="#39393B" transform="translate(501,539)"/>
<path d="M0 0 C0.33 0 0.66 0 1 0 C1 1.98 1 3.96 1 6 C1.721875 6.12375 2.44375 6.2475 3.1875 6.375 C6.02737984 7.00608441 8.42363418 7.64025137 11 9 C12.40823271 12.01764151 11.77743896 13.89024418 11 17 C10.90747105 19.6730586 10.95540125 22.32407493 11 25 C10.34 25 9.68 25 9 25 C8.67 21.04 8.34 17.08 8 13 C8.66 13 9.32 13 10 13 C10 12.34 10 11.68 10 11 C8.68 11.33 7.36 11.66 6 12 C6 11.34 6 10.68 6 10 C3.53673288 8.3553326 3.53673288 8.3553326 1 7 C0.67 7.66 0.34 8.32 0 9 C0 6.03 0 3.06 0 0 Z " fill="#EBEDED" transform="translate(385,393)"/>
<path d="M0 0 C0.53109375 0.48082031 1.0621875 0.96164062 1.609375 1.45703125 C4.59465402 3.38380447 6.72350016 3.4958424 10.25 3.6875 C11.32765625 3.75324219 12.4053125 3.81898438 13.515625 3.88671875 C14.33546875 3.92410156 15.1553125 3.96148437 16 4 C15.67 4.99 15.34 5.98 15 7 C4.08616188 7.62663185 4.08616188 7.62663185 -0.25 5.125 C-2 3 -2 3 -2 1 C-1.34 0.67 -0.68 0.34 0 0 Z " fill="#040404" transform="translate(305,419)"/>
<path d="M0 0 C0.33 0 0.66 0 1 0 C2.33583899 4.84241633 3.25328119 8.93437617 3 14 C-1.875 13.125 -1.875 13.125 -3 12 C-3.38331806 7.01686524 -3.04921133 4.02495896 0 0 Z " fill="#2D2D2D" transform="translate(460,377)"/>
<path d="M0 0 C0.66 0 1.32 0 2 0 C3.12862175 5.36095333 3.09688221 10.55306686 3 16 C1.68 16 0.36 16 -1 16 C-1.02712153 14.083412 -1.04645097 12.1667127 -1.0625 10.25 C-1.07410156 9.18265625 -1.08570313 8.1153125 -1.09765625 7.015625 C-1.01510087 4.46631499 -0.74617558 2.42066409 0 0 Z " fill="#1F1F21" transform="translate(489,386)"/>
<path d="M0 0 C1.41623216 -0.05447047 2.83308191 -0.09300508 4.25 -0.125 C5.03890625 -0.14820313 5.8278125 -0.17140625 6.640625 -0.1953125 C9.20731941 0.0171622 10.7916067 0.71345895 13 2 C13 3.98 13 5.96 13 8 C11.68 7.34 10.36 6.68 9 6 C9 5.34 9 4.68 9 4 C7.88625 3.896875 6.7725 3.79375 5.625 3.6875 C3.830625 3.3471875 3.830625 3.3471875 2 3 C1.34 2.01 0.68 1.02 0 0 Z " fill="#262526" transform="translate(399,463)"/>
<path d="M0 0 C2.5 1.0625 2.5 1.0625 4 2 C1.02819057 3.89865603 -1.51460083 5.35455571 -5 6 C-6.65 4.02 -8.3 2.04 -10 0 C-6.76708301 -1.61645849 -3.43029955 -0.67792481 0 0 Z " fill="#D0D0D0" transform="translate(452,352)"/>
<path d="M0 0 C0.33 0 0.66 0 1 0 C1.19441368 2.2910905 1.38033135 4.58290337 1.5625 6.875 C1.66691406 8.15117187 1.77132813 9.42734375 1.87890625 10.7421875 C2 14 2 14 1 16 C0.01 16 -0.98 16 -2 16 C-2.05384521 13.70858714 -2.09272087 11.41681812 -2.125 9.125 C-2.14820313 7.84882813 -2.17140625 6.57265625 -2.1953125 5.2578125 C-2 2 -2 2 0 0 Z " fill="#717274" transform="translate(380,411)"/>
<path d="M0 0 C2.74858108 2.37377457 3.73711875 4.63231666 5 8 C5.99 9.485 5.99 9.485 7 11 C7.125 13.6875 7.125 13.6875 7 16 C3.81994972 12.11327187 0.89445553 8.10047867 -2 4 C-1.34 2.68 -0.68 1.36 0 0 Z " fill="#464747" transform="translate(471,508)"/>
<path d="M0 0 C1.99097846 2.98646769 2.94124926 5.59687262 4 9 C3 10 3 10 0.4375 10.0625 C-0.366875 10.041875 -1.17125 10.02125 -2 10 C-2.6875 7.25 -2.6875 7.25 -3 4 C-1.5625 1.625 -1.5625 1.625 0 0 Z " fill="#252525" transform="translate(312,408)"/>
<path d="M0 0 C0.33 0 0.66 0 1 0 C1.33 5.28 1.66 10.56 2 16 C1.01 15.67 0.02 15.34 -1 15 C-1 15.66 -1 16.32 -1 17 C-3.70879335 18.35439668 -6.00933268 18.06501451 -9 18 C-9 17.01 -9 16.02 -9 15 C-7.02 15 -5.04 15 -3 15 C-1.08697693 11.73386305 -0.64325339 9.00554752 -0.375 5.25 C-0.30023438 4.26515625 -0.22546875 3.2803125 -0.1484375 2.265625 C-0.09945313 1.51796875 -0.05046875 0.7703125 0 0 Z " fill="#EEEEEE" transform="translate(347,412)"/>
<path d="M0 0 C2.97 0 5.94 0 9 0 C9 0.99 9 1.98 9 3 C8.2575 3.268125 7.515 3.53625 6.75 3.8125 C4.13363446 4.94229421 2.19812889 6.20893202 0 8 C0 5.36 0 2.72 0 0 Z " fill="#2E2E2E" transform="translate(302,400)"/>
<path d="M0 0 C1.65 0 3.3 0 5 0 C6.125 7.625 6.125 7.625 5 11 C4.34 11 3.68 11 3 11 C2.49632243 9.54293274 1.99717444 8.08429904 1.5 6.625 C1.2215625 5.81289063 0.943125 5.00078125 0.65625 4.1640625 C0 2 0 2 0 0 Z " fill="#EBEBEB" transform="translate(311,402)"/>
<path d="M0 0 C5.75 1.75 5.75 1.75 8 4 C7.625 7.125 7.625 7.125 7 10 C4.66666667 7.66666667 2.33333333 5.33333333 0 3 C0 2.01 0 1.02 0 0 Z " fill="#E8E8E8" transform="translate(319,419)"/>
<path d="M0 0 C0.33 1.32 0.66 2.64 1 4 C-0.07107117 4.86949317 -1.15745944 5.72014205 -2.25 6.5625 C-2.85328125 7.03816406 -3.4565625 7.51382812 -4.078125 8.00390625 C-6 9 -6 9 -8.234375 8.65234375 C-8.81703125 8.43707031 -9.3996875 8.22179687 -10 8 C-10 7.34 -10 6.68 -10 6 C-8.35 5.67 -6.7 5.34 -5 5 C-6.65 4.67 -8.3 4.34 -10 4 C-10 3.67 -10 3.34 -10 3 C-7.36 3 -4.72 3 -2 3 C-2 2.34 -2 1.68 -2 1 C-1.34 0.67 -0.68 0.34 0 0 Z " fill="#E8E8E8" transform="translate(426,399)"/>
<path d="M0 0 C0.804375 0.6496875 0.804375 0.6496875 1.625 1.3125 C4.29115885 3.20687603 7.05226832 4.59312806 10 6 C10 6.33 10 6.66 10 7 C5.32798795 8.20568053 0.78503708 8.09382426 -4 8 C-4 7.67 -4 7.34 -4 7 C-2.02 6.67 -0.04 6.34 2 6 C1.34 5.01 0.68 4.02 0 3 C0 2.01 0 1.02 0 0 Z " fill="#212223" transform="translate(366,438)"/>
<path d="M0 0 C0.33 0.66 0.66 1.32 1 2 C1.99 2 2.98 2 4 2 C4.33 3.65 4.66 5.3 5 7 C5.66 7 6.32 7 7 7 C7 7.99 7 8.98 7 10 C7.66 10.33 8.32 10.66 9 11 C7.68 11 6.36 11 5 11 C1.50131711 7.50131711 0.64084558 4.80634186 0 0 Z " fill="#353537" transform="translate(357,421)"/>
<path d="M0 0 C0.99 0 1.98 0 3 0 C3 0.66 3 1.32 3 2 C3.66 2 4.32 2 5 2 C5.33 4.97 5.66 7.94 6 11 C3.34730103 8.52414762 1.31989897 6.40973899 0 3 C0 2.01 0 1.02 0 0 Z " fill="#EEF0F0" transform="translate(387,405)"/>
<path d="M0 0 C0.33 0 0.66 0 1 0 C1 5.28 1 10.56 1 16 C0.67 15.34 0.34 14.68 0 14 C-0.99 14 -1.98 14 -3 14 C-3 13.34 -3 12.68 -3 12 C-3.66 12 -4.32 12 -5 12 C-4.67 11.01 -4.34 10.02 -4 9 C-2.02 9.495 -2.02 9.495 0 10 C0 6.7 0 3.4 0 0 Z " fill="#575759" transform="translate(361,409)"/>
<path d="M0 0 C1.65 0 3.3 0 5 0 C4.67 0.66 4.34 1.32 4 2 C5.32 2.66 6.64 3.32 8 4 C5.36 4.66 2.72 5.32 0 6 C0 5.34 0 4.68 0 4 C-2.97 4 -5.94 4 -9 4 C-8.67 3.34 -8.34 2.68 -8 2 C-5.36 2.33 -2.72 2.66 0 3 C0 2.01 0 1.02 0 0 Z " fill="#DADADB" transform="translate(492,399)"/>
<path d="M0 0 C1.32 0 2.64 0 4 0 C3.9278125 0.83144531 3.855625 1.66289062 3.78125 2.51953125 C3.6884375 3.60621094 3.595625 4.69289063 3.5 5.8125 C3.4071875 6.89144531 3.314375 7.97039062 3.21875 9.08203125 C2.96262162 12.01090811 2.96262162 12.01090811 3 15 C2.34 14.67 1.68 14.34 1 14 C0.5859375 10.83984375 0.5859375 10.83984375 0.375 6.9375 C0.30023438 5.64714844 0.22546875 4.35679687 0.1484375 3.02734375 C0.09945313 2.02832031 0.05046875 1.02929688 0 0 Z " fill="#A2A3A6" transform="translate(460,356)"/>
<path d="M0 0 C0.33 0 0.66 0 1 0 C1.63019694 9.01531729 1.63019694 9.01531729 -1 13.125 C-1.66 13.74375 -2.32 14.3625 -3 15 C-3.3152595 9.01006953 -2.68219822 5.36439644 0 0 Z " fill="#78787A" transform="translate(359,391)"/>
<path d="M0 0 C0.99 0.495 0.99 0.495 2 1 C2 1.66 2 2.32 2 3 C3.98 3 5.96 3 8 3 C8 3.66 8 4.32 8 5 C8.66 5 9.32 5 10 5 C9.67 6.32 9.34 7.64 9 9 C7.35 7.68 5.7 6.36 4 5 C3.34 5.66 2.68 6.32 2 7 C0.5393715 4.35261084 0 3.10551666 0 0 Z " fill="#282829" transform="translate(360,429)"/>
<path d="M0 0 C3 2 3 2 3.51171875 3.9453125 C3.67447917 5.96354167 3.83723958 7.98177083 4 10 C2.68 10 1.36 10 0 10 C0 6.7 0 3.4 0 0 Z " fill="#787A7B" transform="translate(392,416)"/>
<path d="M0 0 C0.66 1.32 1.32 2.64 2 4 C0.02 5.32 -1.96 6.64 -4 8 C-4.33 6.35 -4.66 4.7 -5 3 C-3.35 2.01 -1.7 1.02 0 0 Z " fill="#363636" transform="translate(458,373)"/>
<path d="M0 0 C0.33 0.66 0.66 1.32 1 2 C1.99 2 2.98 2 4 2 C4 2.66 4 3.32 4 4 C3.34 4 2.68 4 2 4 C2 6.31 2 8.62 2 11 C1.67 11 1.34 11 1 11 C0.67 9.02 0.34 7.04 0 5 C-0.33 6.98 -0.66 8.96 -1 11 C-1.33 11 -1.66 11 -2 11 C-2.25 3.375 -2.25 3.375 0 0 Z " fill="#FCFCFC" transform="translate(519,407)"/>
<path d="M0 0 C1.32 0.33 2.64 0.66 4 1 C4.33 2.65 4.66 4.3 5 6 C4.01 5.67 3.02 5.34 2 5 C1.67 7.64 1.34 10.28 1 13 C0.67 13 0.34 13 0 13 C0 8.71 0 4.42 0 0 Z " fill="#212121" transform="translate(480,528)"/>
<path d="M0 0 C2.31 0 4.62 0 7 0 C7.33 0.66 7.66 1.32 8 2 C4.38026598 3.31626692 1.90432869 4 -2 4 C-1.34 2.68 -0.68 1.36 0 0 Z " fill="#F6F6F6" transform="translate(257,399)"/>
<path d="M0 0 C3.93673644 1.31224548 6.22719294 2.91910327 9 6 C6.69 6 4.38 6 2 6 C1.34 4.02 0.68 2.04 0 0 Z " fill="#EAE9EB" transform="translate(456,367)"/>
<path d="M0 0 C0.99 0 1.98 0 3 0 C3 3.3 3 6.6 3 10 C2.01 9.67 1.02 9.34 0 9 C0 6.03 0 3.06 0 0 Z " fill="#0B0B0B" transform="translate(427,405)"/>
<path d="M0 0 C0.66 0.33 1.32 0.66 2 1 C-0.56428003 5.17882671 -3.01930733 8.12505529 -7 11 C-6.75 8.125 -6.75 8.125 -6 5 C-4.0625 3.8125 -4.0625 3.8125 -2 3 C-1.34 2.01 -0.68 1.02 0 0 Z " fill="#E4E7E7" transform="translate(398,369)"/>
<path d="M0 0 C0.33 0.99 0.66 1.98 1 3 C-0.8125 5.5 -0.8125 5.5 -3 8 C-3.66 8.99 -4.32 9.98 -5 11 C-5.3125 8.3125 -5.3125 8.3125 -5 5 C-2.5 2.125 -2.5 2.125 0 0 Z " fill="#040404" transform="translate(459,377)"/>
<path d="M0 0 C2.97 1.65 5.94 3.3 9 5 C9.33 4.34 9.66 3.68 10 3 C10 4.32 10 5.64 10 7 C6.98782888 6.35550393 4.48344164 5.34977818 1.75 3.9375 C1.04359375 3.57527344 0.3371875 3.21304687 -0.390625 2.83984375 C-0.92171875 2.56269531 -1.4528125 2.28554688 -2 2 C-1.34 1.34 -0.68 0.68 0 0 Z " fill="#3A3A3C" transform="translate(429,484)"/>
<path d="M0 0 C0.99 0.33 1.98 0.66 3 1 C3.33 2.65 3.66 4.3 4 6 C2.02 6 0.04 6 -2 6 C-1.34 4.02 -0.68 2.04 0 0 Z " fill="#555557" transform="translate(364,422)"/>
<path d="M0 0 C2.31 0 4.62 0 7 0 C7.33 1.32 7.66 2.64 8 4 C4.31245243 3.50168276 2.39509338 2.89932357 0 0 Z " fill="#404042" transform="translate(441,492)"/>
<path d="M0 0 C2.9719385 1.12451727 5.33440687 2.22293791 8 4 C8 4.66 8 5.32 8 6 C5.21788056 5.62403791 3.4120716 5.32681541 1.1875 3.5625 C0 2 0 2 0 0 Z " fill="#9B9F9F" transform="translate(440,447)"/>
<path d="M0 0 C0.99 0 1.98 0 3 0 C4.125 4.75 4.125 4.75 3 7 C2.01 7 1.02 7 0 7 C0 4.69 0 2.38 0 0 Z " fill="#646768" transform="translate(378,420)"/>
<path d="M0 0 C2.5 1.375 2.5 1.375 5 3 C5 3.66 5 4.32 5 5 C2.03 4.505 2.03 4.505 -1 4 C-1 1 -1 1 0 0 Z " fill="#252526" transform="translate(419,477)"/>
<path d="M0 0 C3.95820859 0.56545837 6.6659053 1.80902348 10 4 C9.67 4.66 9.34 5.32 9 6 C7.68397477 5.38245741 6.37226444 4.75571258 5.0625 4.125 C4.33160156 3.77695312 3.60070312 3.42890625 2.84765625 3.0703125 C1 2 1 2 0 0 Z " fill="#838385" transform="translate(423,439)"/>
<path d="M0 0 C4.29 0 8.58 0 13 0 C11.515 1.485 11.515 1.485 10 3 C6.5 2.6875 6.5 2.6875 3 2 C2.01 2 1.02 2 0 2 C0 1.34 0 0.68 0 0 Z " fill="#898B8E" transform="translate(370,400)"/>
<path d="M0 0 C0.33 0 0.66 0 1 0 C1.33 3.96 1.66 7.92 2 12 C1.34 12 0.68 12 0 12 C-0.76173392 7.6835078 -1.16063604 4.25566547 0 0 Z " fill="#2D2D2F" transform="translate(489,374)"/>
<path d="M0 0 C2.125 0.375 2.125 0.375 4 1 C4 2.98 4 4.96 4 7 C2.02 5.35 0.04 3.7 -2 2 C-1.34 1.34 -0.68 0.68 0 0 Z " fill="#CACACA" transform="translate(444,351)"/>
<path d="M0 0 C0.2475 0.598125 0.495 1.19625 0.75 1.8125 C2.16370012 4.28647521 3.65055383 5.43370255 6 7 C5.67 7.99 5.34 8.98 5 10 C5 9.34 5 8.68 5 8 C3.35 7.67 1.7 7.34 0 7 C0 4.69 0 2.38 0 0 Z " fill="#28282A" transform="translate(500,537)"/>
<path d="M0 0 C0.99 0.33 1.98 0.66 3 1 C3.33 3.64 3.66 6.28 4 9 C3.01 8.67 2.02 8.34 1 8 C0.67 5.36 0.34 2.72 0 0 Z " fill="#575759" transform="translate(482,393)"/>
<path d="M0 0 C0.33 0 0.66 0 1 0 C1 3.96 1 7.92 1 12 C-1 11 -1 11 -1.75 8.8125 C-2.05194616 5.41560571 -1.24302818 3.14413009 0 0 Z " fill="#76787A" transform="translate(473,368)"/>
<path d="M0 0 C0.99 0.99 1.98 1.98 3 3 C2.01 4.32 1.02 5.64 0 7 C-0.66 5.35 -1.32 3.7 -2 2 C-1.34 1.34 -0.68 0.68 0 0 Z " fill="#4D5051" transform="translate(471,508)"/>
<path d="M0 0 C0.33 1.32 0.66 2.64 1 4 C-1.31 4 -3.62 4 -6 4 C-6 3.01 -6 2.02 -6 1 C-3.92446352 0.4465236 -2.15634036 0 0 0 Z " fill="#0D0D0D" transform="translate(317,417)"/>
<path d="M0 0 C2.64 0 5.28 0 8 0 C7.4225 0.268125 6.845 0.53625 6.25 0.8125 C3.9674132 2.01719859 2.0262058 3.40798115 0 5 C0 3.35 0 1.7 0 0 Z " fill="#070707" transform="translate(302,400)"/>
<path d="M0 0 C1.32 0.33 2.64 0.66 4 1 C4.33 2.65 4.66 4.3 5 6 C4.01 6.495 4.01 6.495 3 7 C2.01 4.69 1.02 2.38 0 0 Z " fill="#F4F6F7" transform="translate(470,379)"/>
<path d="M0 0 C2.475 0.99 2.475 0.99 5 2 C5 2.66 5 3.32 5 4 C5.99 4.33 6.98 4.66 8 5 C3.48279689 5.36625971 3.48279689 5.36625971 1.1875 3.625 C0 2 0 2 0 0 Z " fill="#39393B" transform="translate(478,520)"/>
<path d="M0 0 C0.99 0.33 1.98 0.66 3 1 C3 2.98 3 4.96 3 7 C2.01 6.34 1.02 5.68 0 5 C-0.1875 2.375 -0.1875 2.375 0 0 Z " fill="#323232" transform="translate(409,464)"/>
<path d="M0 0 C3.65316671 1.24976756 4.78065836 1.67098753 7 5 C5.35 4.67 3.7 4.34 2 4 C2 3.34 2 2.68 2 2 C1.34 2 0.68 2 0 2 C0 1.34 0 0.68 0 0 Z " fill="#0F0F11" transform="translate(392,459)"/>
<path d="M0 0 C2.64 1.65 5.28 3.3 8 5 C5 6 5 6 2.875 5.3125 C1 4 1 4 0 0 Z " fill="#939395" transform="translate(401,424)"/>
<path d="M0 0 C0.66 0.33 1.32 0.66 2 1 C2 1.66 2 2.32 2 3 C-2.29 3 -6.58 3 -11 3 C-11 2.67 -11 2.34 -11 2 C-10.28972656 1.93941406 -9.57945312 1.87882812 -8.84765625 1.81640625 C-7.46900391 1.69072266 -7.46900391 1.69072266 -6.0625 1.5625 C-5.14597656 1.48128906 -4.22945313 1.40007812 -3.28515625 1.31640625 C-1.03840268 1.23955024 -1.03840268 1.23955024 0 0 Z " fill="#1F1F1F" transform="translate(321,424)"/>
<path d="M0 0 C0.99 0.99 1.98 1.98 3 3 C2.34 4.98 1.68 6.96 1 9 C-1 6 -1 6 -0.625 2.8125 C-0.41875 1.884375 -0.2125 0.95625 0 0 Z " fill="#F0F0F0" transform="translate(550,420)"/>
<path d="M0 0 C-0.375 2.4375 -0.375 2.4375 -1 5 C-1.99 5.495 -1.99 5.495 -3 6 C-3 5.01 -3 4.02 -3 3 C-3.66 3 -4.32 3 -5 3 C-5 2.34 -5 1.68 -5 1 C-3 0 -3 0 0 0 Z " fill="#F4F4F4" transform="translate(270,416)"/>
</svg>
